<svg style="color: var(--color-text-primary);" width="1220" height="500" viewBox="0 0 1220 500" fill="none" xmlns="http://www.w3.org/2000/svg">
<g clip-path="url(#clip0)">
<path d="M88.928 30.4C89.8667 30.4 90.6773 30.7413 91.36 31.424C92.0427 32.1067 92.384 32.9173 92.384 33.856V116.544C92.384 117.483 92.0427 118.293 91.36 118.976C90.6773 119.659 89.8667 120 88.928 120H83.68C82.7413 120 81.9307 119.659 81.248 118.976C80.5653 118.293 80.224 117.483 80.224 116.544V80.448H35.168V116.544C35.168 117.483 34.8267 118.293 34.144 118.976C33.4613 119.659 32.6507 120 31.712 120H26.464C25.5253 120 24.7147 119.701 24.032 119.104C23.3493 118.421 23.008 117.568 23.008 116.544V33.856C23.008 32.9173 23.3493 32.1067 24.032 31.424C24.7147 30.7413 25.5253 30.4 26.464 30.4H31.712C32.6507 30.4 33.4613 30.7413 34.144 31.424C34.8267 32.1067 35.168 32.9173 35.168 33.856V68.928H80.224V33.856C80.224 32.9173 80.5653 32.1067 81.248 31.424C81.9307 30.7413 82.7413 30.4 83.68 30.4H88.928ZM139.215 52.16C148.346 52.16 155.556 55.0613 160.847 60.864C166.138 66.6667 168.783 74.56 168.783 84.544V88C168.783 88.9387 168.442 89.7493 167.759 90.432C167.076 91.1147 166.266 91.456 165.327 91.456H121.295V92.224C121.466 97.856 123.172 102.293 126.415 105.536C129.743 108.693 134.01 110.272 139.215 110.272C143.482 110.272 146.767 109.717 149.071 108.608C151.46 107.499 153.594 105.92 155.471 103.872C156.154 103.189 156.751 102.72 157.263 102.464C157.86 102.208 158.628 102.08 159.567 102.08H163.407C164.431 102.08 165.284 102.421 165.967 103.104C166.65 103.787 166.948 104.597 166.863 105.536C166.522 107.84 165.242 110.229 163.023 112.704C160.89 115.093 157.775 117.141 153.679 118.848C149.668 120.469 144.847 121.28 139.215 121.28C133.754 121.28 128.89 120.043 124.623 117.568C120.356 115.008 116.943 111.509 114.383 107.072C111.908 102.635 110.415 97.6427 109.903 92.096C109.732 89.536 109.647 87.5733 109.647 86.208C109.647 84.8427 109.732 82.88 109.903 80.32C110.415 75.0293 111.908 70.2507 114.383 65.984C116.943 61.7173 120.314 58.3467 124.495 55.872C128.762 53.3973 133.668 52.16 139.215 52.16ZM157.263 80.704V80.32C157.263 75.1147 155.599 70.976 152.271 67.904C149.028 64.7467 144.676 63.168 139.215 63.168C134.266 63.168 130.042 64.7467 126.543 67.904C123.13 71.0613 121.38 75.2 121.295 80.32V80.704H157.263ZM195.873 116.544C195.873 117.483 195.532 118.293 194.849 118.976C194.166 119.659 193.356 120 192.417 120H187.681C186.742 120 185.932 119.659 185.249 118.976C184.566 118.293 184.225 117.483 184.225 116.544V32.576C184.225 31.6373 184.566 30.8267 185.249 30.144C185.932 29.4613 186.742 29.12 187.681 29.12H192.417C193.356 29.12 194.166 29.4613 194.849 30.144C195.532 30.8267 195.873 31.6373 195.873 32.576V116.544ZM226.748 116.544C226.748 117.483 226.407 118.293 225.724 118.976C225.041 119.659 224.231 120 223.292 120H218.556C217.617 120 216.807 119.659 216.124 118.976C215.441 118.293 215.1 117.483 215.1 116.544V32.576C215.1 31.6373 215.441 30.8267 216.124 30.144C216.807 29.4613 217.617 29.12 218.556 29.12H223.292C224.231 29.12 225.041 29.4613 225.724 30.144C226.407 30.8267 226.748 31.6373 226.748 32.576V116.544ZM303.575 80.704C303.746 82.5813 303.831 84.6293 303.831 86.848C303.831 88.896 303.746 90.8587 303.575 92.736C302.807 101.44 299.778 108.395 294.487 113.6C289.282 118.72 282.199 121.28 273.239 121.28C264.279 121.28 257.154 118.72 251.863 113.6C246.658 108.395 243.671 101.44 242.903 92.736C242.818 91.7973 242.775 89.8347 242.775 86.848C242.775 83.6907 242.818 81.6427 242.903 80.704C243.586 72 246.572 65.088 251.863 59.968C257.154 54.7627 264.279 52.16 273.239 52.16C282.199 52.16 289.324 54.7627 294.615 59.968C299.906 65.088 302.892 72 303.575 80.704ZM291.927 81.344C291.415 75.8827 289.58 71.488 286.423 68.16C283.351 64.832 278.956 63.168 273.239 63.168C267.522 63.168 263.084 64.832 259.927 68.16C256.855 71.488 255.063 75.8827 254.551 81.344C254.466 82.368 254.423 84.2027 254.423 86.848C254.423 89.408 254.466 91.1573 254.551 92.096C255.063 97.5573 256.855 101.952 259.927 105.28C263.084 108.608 267.522 110.272 273.239 110.272C278.956 110.272 283.351 108.608 286.423 105.28C289.58 101.952 291.415 97.5573 291.927 92.096C292.098 90.2187 292.183 88.4693 292.183 86.848C292.183 85.2267 292.098 83.392 291.927 81.344ZM318.826 109.504C319.082 108.139 319.637 106.987 320.49 106.048C321.429 105.024 322.709 104.512 324.33 104.512H331.754C332.522 104.512 333.162 104.811 333.674 105.408C334.271 105.92 334.57 106.56 334.57 107.328C334.57 107.669 334.527 107.968 334.442 108.224L327.786 125.504C326.762 128.235 324.927 129.6 322.282 129.6H319.082C318.314 129.6 317.631 129.301 317.034 128.704C316.522 128.192 316.266 127.552 316.266 126.784V126.528L318.826 109.504ZM394.748 60.864C396.796 58.2187 399.1 56.128 401.66 54.592C404.22 52.9707 407.633 52.16 411.9 52.16C421.884 52.16 428.881 55.872 432.892 63.296C435.367 59.712 438.183 56.9813 441.34 55.104C444.497 53.1413 448.636 52.16 453.756 52.16C462.119 52.16 468.305 54.6773 472.316 59.712C476.412 64.7467 478.46 71.872 478.46 81.088V116.544C478.46 117.483 478.119 118.293 477.436 118.976C476.753 119.659 475.943 120 475.004 120H470.268C469.329 120 468.519 119.659 467.836 118.976C467.153 118.293 466.812 117.483 466.812 116.544V82.368C466.812 69.568 461.777 63.168 451.708 63.168C447.1 63.168 443.431 64.704 440.7 67.776C437.969 70.848 436.604 75.4133 436.604 81.472V116.544C436.604 117.483 436.263 118.293 435.58 118.976C434.897 119.659 434.087 120 433.148 120H428.412C427.473 120 426.663 119.659 425.98 118.976C425.297 118.293 424.956 117.483 424.956 116.544V82.368C424.956 69.568 419.921 63.168 409.852 63.168C405.244 63.168 401.575 64.704 398.844 67.776C396.113 70.848 394.748 75.4133 394.748 81.472V116.544C394.748 117.483 394.407 118.293 393.724 118.976C393.041 119.659 392.231 120 391.292 120H386.556C385.617 120 384.807 119.659 384.124 118.976C383.441 118.293 383.1 117.483 383.1 116.544V56.896C383.1 55.9573 383.441 55.1467 384.124 54.464C384.807 53.7813 385.617 53.44 386.556 53.44H391.292C392.231 53.44 393.041 53.7813 393.724 54.464C394.407 55.1467 394.748 55.9573 394.748 56.896V60.864ZM516.559 141.248C515.791 143.296 514.554 144.32 512.847 144.32H507.599C506.746 144.32 506.02 144.021 505.423 143.424C504.826 142.827 504.527 142.101 504.527 141.248C504.527 140.907 504.57 140.608 504.655 140.352L516.943 113.6L491.599 57.408C491.514 57.152 491.471 56.8533 491.471 56.512C491.471 55.6587 491.77 54.9333 492.367 54.336C492.964 53.7387 493.69 53.44 494.543 53.44H499.791C501.498 53.44 502.735 54.464 503.503 56.512L523.215 100.032L543.183 56.512C543.951 54.464 545.188 53.44 546.895 53.44H552.143C552.996 53.44 553.722 53.7387 554.319 54.336C554.916 54.9333 555.215 55.6587 555.215 56.512C555.215 56.8533 555.172 57.152 555.087 57.408L516.559 141.248ZM658.611 116.544C658.611 117.483 658.27 118.293 657.587 118.976C656.904 119.659 656.094 120 655.155 120H650.419C649.48 120 648.67 119.659 647.987 118.976C647.304 118.293 646.963 117.483 646.963 116.544V82.752C646.963 76.352 645.384 71.488 642.227 68.16C639.07 64.832 634.675 63.168 629.043 63.168C623.496 63.168 619.102 64.832 615.859 68.16C612.702 71.488 611.123 76.352 611.123 82.752V116.544C611.123 117.483 610.782 118.293 610.099 118.976C609.416 119.659 608.606 120 607.667 120H602.931C601.992 120 601.182 119.659 600.499 118.976C599.816 118.293 599.475 117.483 599.475 116.544V56.896C599.475 55.9573 599.816 55.1467 600.499 54.464C601.182 53.7813 601.992 53.44 602.931 53.44H607.667C608.606 53.44 609.416 53.7813 610.099 54.464C610.782 55.1467 611.123 55.9573 611.123 56.896V60.864C613 58.3893 615.56 56.3413 618.803 54.72C622.131 53.0133 626.184 52.16 630.963 52.16C636.339 52.16 641.118 53.312 645.299 55.616C649.48 57.92 652.723 61.248 655.027 65.6C657.416 69.8667 658.611 74.944 658.611 80.832V116.544ZM716.777 77.888V76.224C716.777 72.0427 715.369 68.8427 712.553 66.624C709.822 64.32 706.238 63.168 701.801 63.168C698.388 63.168 695.7 63.7653 693.737 64.96C691.86 66.0693 690.068 67.776 688.361 70.08C687.849 70.7627 687.294 71.232 686.697 71.488C686.1 71.744 685.289 71.872 684.265 71.872H680.425C679.486 71.872 678.633 71.5307 677.865 70.848C677.182 70.1653 676.884 69.3547 676.969 68.416C677.225 65.856 678.462 63.3387 680.681 60.864C682.985 58.304 686.014 56.2133 689.769 54.592C693.524 52.9707 697.534 52.16 701.801 52.16C709.737 52.16 716.137 54.3787 721.001 58.816C725.95 63.2533 728.425 69.4827 728.425 77.504V116.544C728.425 117.483 728.084 118.293 727.401 118.976C726.718 119.659 725.908 120 724.969 120H720.233C719.294 120 718.484 119.659 717.801 118.976C717.118 118.293 716.777 117.483 716.777 116.544V111.296C715.412 114.368 712.51 116.8 708.073 118.592C703.636 120.384 699.198 121.28 694.761 121.28C690.409 121.28 686.526 120.512 683.113 118.976C679.7 117.355 677.054 115.179 675.177 112.448C673.385 109.717 672.489 106.645 672.489 103.232C672.489 96.832 674.878 91.84 679.657 88.256C684.436 84.5867 690.793 82.112 698.729 80.832L716.777 77.888ZM716.777 88.128L701.673 90.56C696.126 91.4133 691.817 92.8213 688.745 94.784C685.673 96.6613 684.137 99.0507 684.137 101.952C684.137 104.085 685.118 106.005 687.081 107.712C689.044 109.419 692.03 110.272 696.041 110.272C702.185 110.272 707.177 108.523 711.017 105.024C714.857 101.525 716.777 96.96 716.777 91.328V88.128ZM758.748 60.864C760.796 58.2187 763.1 56.128 765.66 54.592C768.22 52.9707 771.633 52.16 775.9 52.16C785.884 52.16 792.881 55.872 796.892 63.296C799.367 59.712 802.183 56.9813 805.34 55.104C808.497 53.1413 812.636 52.16 817.756 52.16C826.119 52.16 832.305 54.6773 836.316 59.712C840.412 64.7467 842.46 71.872 842.46 81.088V116.544C842.46 117.483 842.119 118.293 841.436 118.976C840.753 119.659 839.943 120 839.004 120H834.268C833.329 120 832.519 119.659 831.836 118.976C831.153 118.293 830.812 117.483 830.812 116.544V82.368C830.812 69.568 825.777 63.168 815.708 63.168C811.1 63.168 807.431 64.704 804.7 67.776C801.969 70.848 800.604 75.4133 800.604 81.472V116.544C800.604 117.483 800.263 118.293 799.58 118.976C798.897 119.659 798.087 120 797.148 120H792.412C791.473 120 790.663 119.659 789.98 118.976C789.297 118.293 788.956 117.483 788.956 116.544V82.368C788.956 69.568 783.921 63.168 773.852 63.168C769.244 63.168 765.575 64.704 762.844 67.776C760.113 70.848 758.748 75.4133 758.748 81.472V116.544C758.748 117.483 758.407 118.293 757.724 118.976C757.041 119.659 756.231 120 755.292 120H750.556C749.617 120 748.807 119.659 748.124 118.976C747.441 118.293 747.1 117.483 747.1 116.544V56.896C747.1 55.9573 747.441 55.1467 748.124 54.464C748.807 53.7813 749.617 53.44 750.556 53.44H755.292C756.231 53.44 757.041 53.7813 757.724 54.464C758.407 55.1467 758.748 55.9573 758.748 56.896V60.864ZM887.215 52.16C896.346 52.16 903.556 55.0613 908.847 60.864C914.138 66.6667 916.783 74.56 916.783 84.544V88C916.783 88.9387 916.442 89.7493 915.759 90.432C915.076 91.1147 914.266 91.456 913.327 91.456H869.295V92.224C869.466 97.856 871.172 102.293 874.415 105.536C877.743 108.693 882.01 110.272 887.215 110.272C891.482 110.272 894.767 109.717 897.071 108.608C899.46 107.499 901.594 105.92 903.471 103.872C904.154 103.189 904.751 102.72 905.263 102.464C905.86 102.208 906.628 102.08 907.567 102.08H911.407C912.431 102.08 913.284 102.421 913.967 103.104C914.65 103.787 914.948 104.597 914.863 105.536C914.522 107.84 913.242 110.229 911.023 112.704C908.89 115.093 905.775 117.141 901.679 118.848C897.668 120.469 892.847 121.28 887.215 121.28C881.754 121.28 876.89 120.043 872.623 117.568C868.356 115.008 864.943 111.509 862.383 107.072C859.908 102.635 858.415 97.6427 857.903 92.096C857.732 89.536 857.647 87.5733 857.647 86.208C857.647 84.8427 857.732 82.88 857.903 80.32C858.415 75.0293 859.908 70.2507 862.383 65.984C864.943 61.7173 868.314 58.3467 872.495 55.872C876.762 53.3973 881.668 52.16 887.215 52.16ZM905.263 80.704V80.32C905.263 75.1147 903.599 70.976 900.271 67.904C897.028 64.7467 892.676 63.168 887.215 63.168C882.266 63.168 878.042 64.7467 874.543 67.904C871.13 71.0613 869.38 75.2 869.295 80.32V80.704H905.263ZM98.784 218.112C98.9547 222.891 99.04 225.963 99.04 227.328C99.04 228.693 98.9547 231.68 98.784 236.288C98.528 243.285 96.6933 249.472 93.28 254.848C89.952 260.224 85.344 264.448 79.456 267.52C73.568 270.507 66.7413 272 58.976 272H24.416C23.4773 272 22.6667 271.659 21.984 270.976C21.3013 270.293 20.96 269.483 20.96 268.544V185.856C20.96 184.917 21.3013 184.107 21.984 183.424C22.6667 182.741 23.4773 182.4 24.416 182.4H58.336C66.1013 182.4 72.9707 183.936 78.944 187.008C85.0027 189.995 89.7387 194.219 93.152 199.68C96.6507 205.056 98.528 211.2 98.784 218.112ZM44.64 202.88V251.52H58.336C69.088 251.52 74.6773 246.613 75.104 236.8C75.2747 231.851 75.36 228.608 75.36 227.072C75.36 225.365 75.2747 222.208 75.104 217.6C74.848 212.736 73.2267 209.067 70.24 206.592C67.3387 204.117 63.1573 202.88 57.696 202.88H44.64ZM147.818 228.48C147.818 223.787 145.343 221.44 140.394 221.44C137.578 221.44 135.274 222.208 133.482 223.744C132.799 224.427 132.117 224.853 131.434 225.024C130.751 225.195 129.898 225.28 128.874 225.28H112.618C111.765 225.28 111.039 225.024 110.442 224.512C109.93 224 109.717 223.317 109.802 222.464C110.058 219.819 111.509 217.088 114.154 214.272C116.885 211.371 120.554 208.981 125.162 207.104C129.77 205.141 134.847 204.16 140.394 204.16C150.549 204.16 158.143 206.464 163.178 211.072C168.298 215.68 170.858 221.909 170.858 229.76V268.544C170.858 269.483 170.517 270.293 169.834 270.976C169.151 271.659 168.341 272 167.402 272H151.274C150.335 272 149.525 271.659 148.842 270.976C148.159 270.293 147.818 269.483 147.818 268.544V264.96C145.599 267.691 142.954 269.781 139.882 271.232C136.81 272.597 132.927 273.28 128.234 273.28C121.066 273.28 115.434 271.403 111.338 267.648C107.327 263.893 105.322 259.029 105.322 253.056C105.322 247.339 107.541 242.645 111.978 238.976C116.415 235.307 123.37 232.661 132.842 231.04L147.818 228.48ZM136.042 245.504C133.653 245.931 131.775 246.699 130.41 247.808C129.045 248.832 128.362 250.112 128.362 251.648C128.362 254.549 130.41 256 134.506 256C138.261 256 141.418 254.805 143.978 252.416C146.538 250.027 147.818 247.125 147.818 243.712L136.042 245.504ZM179.929 209.408C179.844 209.152 179.801 208.853 179.801 208.512C179.801 207.659 180.1 206.933 180.697 206.336C181.294 205.739 182.02 205.44 182.873 205.44H199.257C201.134 205.44 202.542 206.464 203.481 208.512L217.561 241.92L231.641 208.512C232.58 206.464 233.988 205.44 235.865 205.44H252.249C253.102 205.44 253.828 205.739 254.425 206.336C255.022 206.933 255.321 207.659 255.321 208.512C255.321 208.853 255.278 209.152 255.193 209.408L229.337 268.8C228.825 269.824 228.27 270.635 227.673 271.232C227.076 271.744 226.222 272 225.113 272H210.009C208.9 272 208.046 271.744 207.449 271.232C206.852 270.635 206.297 269.824 205.785 268.8L179.929 209.408ZM287.964 194.944C287.964 195.883 287.623 196.693 286.94 197.376C286.257 198.059 285.447 198.4 284.508 198.4H268.38C267.441 198.4 266.631 198.059 265.948 197.376C265.265 196.693 264.924 195.883 264.924 194.944V182.016C264.924 181.077 265.265 180.267 265.948 179.584C266.631 178.901 267.441 178.56 268.38 178.56H284.508C285.447 178.56 286.257 178.901 286.94 179.584C287.623 180.267 287.964 181.077 287.964 182.016V194.944ZM287.964 268.544C287.964 269.483 287.623 270.293 286.94 270.976C286.257 271.659 285.447 272 284.508 272H268.38C267.441 272 266.631 271.659 265.948 270.976C265.265 270.293 264.924 269.483 264.924 268.544V208.896C264.924 207.957 265.265 207.147 265.948 206.464C266.631 205.781 267.441 205.44 268.38 205.44H284.508C285.447 205.44 286.257 205.781 286.94 206.464C287.623 207.147 287.964 207.957 287.964 208.896V268.544ZM346.063 184.576C346.063 183.637 346.404 182.827 347.087 182.144C347.77 181.461 348.58 181.12 349.519 181.12H365.647C366.586 181.12 367.396 181.461 368.079 182.144C368.762 182.827 369.103 183.637 369.103 184.576V268.544C369.103 269.483 368.762 270.293 368.079 270.976C367.396 271.659 366.586 272 365.647 272H350.159C349.22 272 348.41 271.659 347.727 270.976C347.044 270.293 346.703 269.483 346.703 268.544V265.6C345.338 267.221 344.015 268.544 342.735 269.568C341.54 270.592 339.791 271.445 337.487 272.128C335.268 272.896 332.41 273.28 328.911 273.28C320.804 273.28 314.063 270.805 308.687 265.856C303.396 260.907 300.58 253.611 300.239 243.968L300.111 238.72L300.239 233.6C300.58 223.957 303.396 216.661 308.687 211.712C313.978 206.677 320.719 204.16 328.911 204.16C333.348 204.16 336.932 204.928 339.663 206.464C342.394 208 344.527 209.792 346.063 211.84V184.576ZM323.151 242.304C323.407 245.632 324.431 248.32 326.223 250.368C328.1 252.416 330.916 253.44 334.671 253.44C338.17 253.44 340.815 252.459 342.607 250.496C344.484 248.533 345.636 246.101 346.063 243.2C346.234 242.347 346.319 240.853 346.319 238.72C346.319 236.587 346.234 235.093 346.063 234.24C345.722 231.424 344.612 229.035 342.735 227.072C340.858 225.024 338.17 224 334.671 224C330.916 224 328.1 225.024 326.223 227.072C324.431 229.12 323.407 231.808 323.151 235.136C323.066 235.989 323.023 237.184 323.023 238.72C323.023 240.256 323.066 241.451 323.151 242.304ZM406.708 268.544C406.708 269.483 406.367 270.293 405.684 270.976C405.001 271.659 404.191 272 403.252 272H386.484C385.545 272 384.735 271.659 384.052 270.976C383.369 270.293 383.028 269.483 383.028 268.544V251.776C383.028 250.837 383.369 250.027 384.052 249.344C384.735 248.661 385.545 248.32 386.484 248.32H403.252C404.191 248.32 405.001 248.661 405.684 249.344C406.367 250.027 406.708 250.837 406.708 251.776V268.544Z" fill="currentColor"/>
<path d="M1010.85 90.432C998.391 87.7867 992.162 81.4293 992.162 71.36C992.162 67.8613 993.101 64.6613 994.978 61.76C996.855 58.8587 999.629 56.5547 1003.3 54.848C1007.05 53.056 1011.62 52.16 1016.99 52.16C1022.28 52.16 1026.85 52.928 1030.69 54.464C1034.53 56 1037.43 57.92 1039.39 60.224C1041.44 62.528 1042.47 64.7467 1042.47 66.88C1042.47 67.7333 1042.12 68.5013 1041.44 69.184C1040.76 69.7813 1039.95 70.08 1039.01 70.08H1034.79C1033.16 70.08 1031.88 69.4827 1030.95 68.288C1028.3 64.8747 1023.65 63.168 1016.99 63.168C1013.07 63.168 1009.87 63.8933 1007.39 65.344C1005 66.7947 1003.81 68.8 1003.81 71.36C1003.81 73.4933 1004.41 75.1147 1005.6 76.224C1006.8 77.3333 1008.59 78.2293 1010.98 78.912C1013.37 79.5947 1017.59 80.6187 1023.65 81.984C1031.16 83.6053 1036.49 86.08 1039.65 89.408C1042.81 92.736 1044.39 96.7893 1044.39 101.568C1044.39 105.067 1043.28 108.309 1041.06 111.296C1038.92 114.283 1035.81 116.715 1031.71 118.592C1027.7 120.384 1023.01 121.28 1017.63 121.28C1012.34 121.28 1007.65 120.469 1003.55 118.848C999.543 117.141 996.429 115.093 994.21 112.704C991.991 110.315 990.882 108.053 990.882 105.92C990.882 105.067 991.223 104.341 991.906 103.744C992.589 103.061 993.399 102.72 994.338 102.72H998.946C999.714 102.72 1000.4 102.805 1000.99 102.976C1001.59 103.147 1002.15 103.616 1002.66 104.384C1005.47 108.309 1010.47 110.272 1017.63 110.272C1021.64 110.272 1025.14 109.461 1028.13 107.84C1031.2 106.133 1032.74 104.043 1032.74 101.568C1032.74 99.52 1031.97 97.8987 1030.43 96.704C1028.98 95.424 1026.85 94.4 1024.03 93.632C1021.22 92.7787 1016.82 91.712 1010.85 90.432Z" fill="currentColor"/>
<rect x="963.5" y="115" width="11.65" height="28" fill="white"/>
<path d="M976.428 39.872C976.428 40.8107 976.087 41.6213 975.404 42.304C974.721 42.9867 973.911 43.328 972.972 43.328H965.676C964.737 43.328 963.927 42.9867 963.244 42.304C962.561 41.6213 962.22 40.8107 962.22 39.872V32.576C962.22 31.6373 962.561 30.8267 963.244 30.144C963.927 29.4613 964.737 29.12 965.676 29.12H972.972C973.911 29.12 974.721 29.4613 975.404 30.144C976.087 30.8267 976.428 31.6373 976.428 32.576V39.872ZM975.148 116.544C975.148 117.483 974.807 118.293 974.124 118.976C973.441 119.659 972.631 120 971.692 120H966.956C966.017 120 965.207 119.659 964.524 118.976C963.841 118.293 963.5 117.483 963.5 116.544V56.896C963.5 55.9573 963.841 55.1467 964.524 54.464C965.207 53.7813 966.017 53.44 966.956 53.44H971.692C972.631 53.44 973.441 53.7813 974.124 54.464C974.807 55.1467 975.148 55.9573 975.148 56.896V116.544Z" fill="currentColor"/>
<path d="M22.4318 361.455H18.1818V408H22.4318V361.455ZM37.6477 361.455H33.7841V365.614C33.7841 369.045 31.9886 372.409 29.7159 375.068L31.9205 377C35.5568 374.091 37.6477 369.273 37.6477 365.545V361.455ZM43.7784 408H47.8239V385.636C47.8239 380.205 51.4375 376.341 56.2784 376.341C61.0511 376.341 63.8239 379.523 63.8239 384.25V408H67.9602V385.023C67.9602 380 70.9602 376.341 76.2784 376.341C80.892 376.341 83.9602 379.114 83.9602 384.614V408H88.0057V384.614C88.0057 376.795 83.983 372.636 77.5057 372.636C72.4148 372.636 68.733 375.114 67.1648 378.977H66.8693C65.3239 375.023 62.2557 372.636 57.4375 372.636C52.8693 372.636 49.4602 374.841 48.0739 378.455H47.7102V373.091H43.7784V408ZM126.466 408.795C132.284 408.795 135.83 405.568 137.284 402.477H137.534V408H141.58V384.295C141.58 374.932 134.534 372.614 129.193 372.614C123.852 372.614 118.352 374.727 115.989 380.432L119.83 381.818C121.102 378.818 124.261 376.25 129.307 376.25C134.602 376.25 137.534 379.159 137.534 383.932V384.75C137.534 387.386 134.261 387.432 128.398 388.159C120.511 389.136 114.989 391.341 114.989 398.25C114.989 404.977 120.125 408.795 126.466 408.795ZM127.011 405.091C122.443 405.091 119.034 402.659 119.034 398.432C119.034 394.205 122.489 392.432 128.398 391.705C131.261 391.364 136.352 390.727 137.534 389.568V394.614C137.534 400.341 133.466 405.091 127.011 405.091ZM156.386 386.182C156.386 380.091 160.386 376.341 165.886 376.341C171.25 376.341 174.705 379.932 174.705 385.636V408H178.75V385.386C178.75 377.114 173.955 372.636 166.909 372.636C161.795 372.636 158.273 375 156.636 378.568H156.273V373.091H152.341V408H156.386V386.182ZM216.335 408.705C221.812 408.705 225.085 406.136 226.585 403.205H226.858V408H234.767V384.636C234.767 375.409 227.244 372.636 220.585 372.636C213.244 372.636 207.608 375.909 205.79 382.273L213.472 383.364C214.29 380.977 216.608 378.932 220.631 378.932C224.449 378.932 226.54 380.886 226.54 384.318V384.455C226.54 386.818 224.062 386.932 217.903 387.591C211.131 388.318 204.653 390.341 204.653 398.205C204.653 405.068 209.676 408.705 216.335 408.705ZM218.472 402.659C215.04 402.659 212.585 401.091 212.585 398.068C212.585 394.909 215.335 393.591 219.017 393.068C221.176 392.773 225.494 392.227 226.562 391.364V395.477C226.562 399.364 223.426 402.659 218.472 402.659ZM243.04 408H251.267V386.773C251.267 382.477 254.131 379.568 257.676 379.568C261.153 379.568 263.54 381.909 263.54 385.5V408H271.608V386.227C271.608 382.295 273.949 379.568 277.926 379.568C281.244 379.568 283.881 381.523 283.881 385.841V408H292.131V384.568C292.131 376.773 287.631 372.636 281.222 372.636C276.153 372.636 272.29 375.136 270.744 379.023H270.381C269.04 375.068 265.653 372.636 260.949 372.636C256.267 372.636 252.767 375.045 251.312 379.023H250.903V373.091H243.04V408ZM310.523 408.705C316 408.705 319.273 406.136 320.773 403.205H321.045V408H328.955V384.636C328.955 375.409 321.432 372.636 314.773 372.636C307.432 372.636 301.795 375.909 299.977 382.273L307.659 383.364C308.477 380.977 310.795 378.932 314.818 378.932C318.636 378.932 320.727 380.886 320.727 384.318V384.455C320.727 386.818 318.25 386.932 312.091 387.591C305.318 388.318 298.841 390.341 298.841 398.205C298.841 405.068 303.864 408.705 310.523 408.705ZM312.659 402.659C309.227 402.659 306.773 401.091 306.773 398.068C306.773 394.909 309.523 393.591 313.205 393.068C315.364 392.773 319.682 392.227 320.75 391.364V395.477C320.75 399.364 317.614 402.659 312.659 402.659ZM354.659 373.091H347.773V364.727H339.545V373.091H334.591V379.455H339.545V398.864C339.5 405.432 344.273 408.659 350.455 408.477C352.795 408.409 354.409 407.955 355.295 407.659L353.909 401.227C353.455 401.341 352.523 401.545 351.5 401.545C349.432 401.545 347.773 400.818 347.773 397.5V379.455H354.659V373.091ZM376.619 408.682C384.756 408.682 390.347 404.705 391.801 398.636L384.119 397.773C383.006 400.727 380.278 402.273 376.733 402.273C371.415 402.273 367.892 398.773 367.824 392.795H392.142V390.273C392.142 378.023 384.778 372.636 376.188 372.636C366.188 372.636 359.665 379.977 359.665 390.75C359.665 401.705 366.097 408.682 376.619 408.682ZM367.847 387.25C368.097 382.795 371.392 379.045 376.301 379.045C381.028 379.045 384.21 382.5 384.256 387.25H367.847ZM421.352 393.318C421.352 398.636 417.557 401.273 413.92 401.273C409.966 401.273 407.33 398.477 407.33 394.045V373.091H399.102V395.318C399.102 403.705 403.875 408.455 410.739 408.455C415.966 408.455 419.648 405.705 421.239 401.795H421.602V408H429.58V373.091H421.352V393.318ZM438.04 408H446.267V387.477C446.267 383.045 449.608 379.909 454.131 379.909C455.517 379.909 457.244 380.159 457.949 380.386V372.818C457.199 372.682 455.903 372.591 454.994 372.591C450.994 372.591 447.653 374.864 446.381 378.909H446.017V373.091H438.04V408ZM492.244 408.614C498.244 408.614 500.949 405.045 502.244 402.5H502.744V408H510.835V361.455H502.585V378.864H502.244C500.994 376.341 498.426 372.636 492.267 372.636C484.199 372.636 477.858 378.955 477.858 390.591C477.858 402.091 484.017 408.614 492.244 408.614ZM494.54 401.864C489.108 401.864 486.244 397.091 486.244 390.545C486.244 384.045 489.062 379.386 494.54 379.386C499.835 379.386 502.744 383.773 502.744 390.545C502.744 397.318 499.79 401.864 494.54 401.864ZM535.057 408.682C543.193 408.682 548.784 404.705 550.239 398.636L542.557 397.773C541.443 400.727 538.716 402.273 535.17 402.273C529.852 402.273 526.33 398.773 526.261 392.795H550.58V390.273C550.58 378.023 543.216 372.636 534.625 372.636C524.625 372.636 518.102 379.977 518.102 390.75C518.102 401.705 524.534 408.682 535.057 408.682ZM526.284 387.25C526.534 382.795 529.83 379.045 534.739 379.045C539.466 379.045 542.648 382.5 542.693 387.25H526.284ZM587.722 373.091H578.972L570.926 399.023H570.562L562.54 373.091H553.767L566.199 408H575.29L587.722 373.091ZM607.682 408.682C615.818 408.682 621.409 404.705 622.864 398.636L615.182 397.773C614.068 400.727 611.341 402.273 607.795 402.273C602.477 402.273 598.955 398.773 598.886 392.795H623.205V390.273C623.205 378.023 615.841 372.636 607.25 372.636C597.25 372.636 590.727 379.977 590.727 390.75C590.727 401.705 597.159 408.682 607.682 408.682ZM598.909 387.25C599.159 382.795 602.455 379.045 607.364 379.045C612.091 379.045 615.273 382.5 615.318 387.25H598.909ZM638.392 361.455H630.165V408H638.392V361.455ZM662.08 408.682C672.307 408.682 678.807 401.477 678.807 390.682C678.807 379.864 672.307 372.636 662.08 372.636C651.852 372.636 645.352 379.864 645.352 390.682C645.352 401.477 651.852 408.682 662.08 408.682ZM662.125 402.091C656.466 402.091 653.693 397.045 653.693 390.659C653.693 384.273 656.466 379.159 662.125 379.159C667.693 379.159 670.466 384.273 670.466 390.659C670.466 397.045 667.693 402.091 662.125 402.091ZM685.79 421.091H694.017V402.5H694.358C695.653 405.045 698.358 408.614 704.358 408.614C712.585 408.614 718.744 402.091 718.744 390.591C718.744 378.955 712.403 372.636 704.335 372.636C698.176 372.636 695.608 376.341 694.358 378.864H693.881V373.091H685.79V421.091ZM693.858 390.545C693.858 383.773 696.767 379.386 702.062 379.386C707.54 379.386 710.358 384.045 710.358 390.545C710.358 397.091 707.494 401.864 702.062 401.864C696.812 401.864 693.858 397.318 693.858 390.545ZM741.244 408.682C749.381 408.682 754.972 404.705 756.426 398.636L748.744 397.773C747.631 400.727 744.903 402.273 741.358 402.273C736.04 402.273 732.517 398.773 732.449 392.795H756.767V390.273C756.767 378.023 749.403 372.636 740.812 372.636C730.812 372.636 724.29 379.977 724.29 390.75C724.29 401.705 730.722 408.682 741.244 408.682ZM732.472 387.25C732.722 382.795 736.017 379.045 740.926 379.045C745.653 379.045 748.835 382.5 748.881 387.25H732.472ZM763.727 408H771.955V387.477C771.955 383.045 775.295 379.909 779.818 379.909C781.205 379.909 782.932 380.159 783.636 380.386V372.818C782.886 372.682 781.591 372.591 780.682 372.591C776.682 372.591 773.341 374.864 772.068 378.909H771.705V373.091H763.727V408ZM27.0909 485.795C32.9091 485.795 36.4545 482.568 37.9091 479.477H38.1591V485H42.2045V461.295C42.2045 451.932 35.1591 449.614 29.8182 449.614C24.4773 449.614 18.9773 451.727 16.6136 457.432L20.4545 458.818C21.7273 455.818 24.8864 453.25 29.9318 453.25C35.2273 453.25 38.1591 456.159 38.1591 460.932V461.75C38.1591 464.386 34.8864 464.432 29.0227 465.159C21.1364 466.136 15.6136 468.341 15.6136 475.25C15.6136 481.977 20.75 485.795 27.0909 485.795ZM27.6364 482.091C23.0682 482.091 19.6591 479.659 19.6591 475.432C19.6591 471.205 23.1136 469.432 29.0227 468.705C31.8864 468.364 36.9773 467.727 38.1591 466.568V471.614C38.1591 477.341 34.0909 482.091 27.6364 482.091ZM57.0114 463.182C57.0114 457.091 61.0114 453.341 66.5114 453.341C71.875 453.341 75.3295 456.932 75.3295 462.636V485H79.375V462.386C79.375 454.114 74.5795 449.636 67.5341 449.636C62.4205 449.636 58.8977 452 57.2614 455.568H56.8977V450.091H52.9659V485H57.0114V463.182ZM102.597 485.727C108.938 485.727 111.892 481.705 113.324 478.523H113.801V485H117.756V438.455H113.688V456.75H113.324C111.938 453.614 109.051 449.614 102.665 449.614C94.0511 449.614 88.233 456.886 88.233 467.636C88.233 478.477 94.0284 485.727 102.597 485.727ZM103.074 482.023C96.1193 482.023 92.3011 475.705 92.3011 467.568C92.3011 459.523 96.0739 453.295 103.074 453.295C109.892 453.295 113.756 459.205 113.756 467.568C113.756 476 109.847 482.023 103.074 482.023ZM146.165 498.091H154.392V479.5H154.733C156.028 482.045 158.733 485.614 164.733 485.614C172.96 485.614 179.119 479.091 179.119 467.591C179.119 455.955 172.778 449.636 164.71 449.636C158.551 449.636 155.983 453.341 154.733 455.864H154.256V450.091H146.165V498.091ZM154.233 467.545C154.233 460.773 157.142 456.386 162.438 456.386C167.915 456.386 170.733 461.045 170.733 467.545C170.733 474.091 167.869 478.864 162.438 478.864C157.188 478.864 154.233 474.318 154.233 467.545ZM186.165 485H194.392V464.477C194.392 460.045 197.733 456.909 202.256 456.909C203.642 456.909 205.369 457.159 206.074 457.386V449.818C205.324 449.682 204.028 449.591 203.119 449.591C199.119 449.591 195.778 451.864 194.506 455.909H194.142V450.091H186.165V485ZM225.33 485.682C235.557 485.682 242.057 478.477 242.057 467.682C242.057 456.864 235.557 449.636 225.33 449.636C215.102 449.636 208.602 456.864 208.602 467.682C208.602 478.477 215.102 485.682 225.33 485.682ZM225.375 479.091C219.716 479.091 216.943 474.045 216.943 467.659C216.943 461.273 219.716 456.159 225.375 456.159C230.943 456.159 233.716 461.273 233.716 467.659C233.716 474.045 230.943 479.091 225.375 479.091ZM266.722 450.091H259.472V447.341C259.472 444.614 260.608 443.091 263.676 443.091C264.972 443.091 266.062 443.386 266.744 443.591L268.403 437.227C267.335 436.864 264.994 436.273 262.153 436.273C256.085 436.273 251.244 439.75 251.244 446.795V450.091H246.085V456.455H251.244V485H259.472V456.455H266.722V450.091ZM287.307 485.682C295.443 485.682 301.034 481.705 302.489 475.636L294.807 474.773C293.693 477.727 290.966 479.273 287.42 479.273C282.102 479.273 278.58 475.773 278.511 469.795H302.83V467.273C302.83 455.023 295.466 449.636 286.875 449.636C276.875 449.636 270.352 456.977 270.352 467.75C270.352 478.705 276.784 485.682 287.307 485.682ZM278.534 464.25C278.784 459.795 282.08 456.045 286.989 456.045C291.716 456.045 294.898 459.5 294.943 464.25H278.534ZM337.381 459.318C336.244 453.409 331.517 449.636 323.335 449.636C314.926 449.636 309.199 453.773 309.222 460.227C309.199 465.318 312.335 468.682 319.04 470.068L324.994 471.318C328.199 472.023 329.699 473.318 329.699 475.295C329.699 477.682 327.108 479.477 323.199 479.477C319.426 479.477 316.972 477.841 316.267 474.705L308.244 475.477C309.267 481.886 314.653 485.682 323.222 485.682C331.949 485.682 338.108 481.159 338.131 474.545C338.108 469.568 334.903 466.523 328.312 465.091L322.358 463.818C318.812 463.023 317.403 461.795 317.426 459.773C317.403 457.409 320.017 455.773 323.449 455.773C327.244 455.773 329.244 457.841 329.881 460.136L337.381 459.318ZM372.506 459.318C371.369 453.409 366.642 449.636 358.46 449.636C350.051 449.636 344.324 453.773 344.347 460.227C344.324 465.318 347.46 468.682 354.165 470.068L360.119 471.318C363.324 472.023 364.824 473.318 364.824 475.295C364.824 477.682 362.233 479.477 358.324 479.477C354.551 479.477 352.097 477.841 351.392 474.705L343.369 475.477C344.392 481.886 349.778 485.682 358.347 485.682C367.074 485.682 373.233 481.159 373.256 474.545C373.233 469.568 370.028 466.523 363.438 465.091L357.483 463.818C353.938 463.023 352.528 461.795 352.551 459.773C352.528 457.409 355.142 455.773 358.574 455.773C362.369 455.773 364.369 457.841 365.006 460.136L372.506 459.318ZM380.04 485H388.267V450.091H380.04V485ZM384.176 445.136C386.79 445.136 388.926 443.136 388.926 440.682C388.926 438.205 386.79 436.205 384.176 436.205C381.54 436.205 379.403 438.205 379.403 440.682C379.403 443.136 381.54 445.136 384.176 445.136ZM411.955 485.682C422.182 485.682 428.682 478.477 428.682 467.682C428.682 456.864 422.182 449.636 411.955 449.636C401.727 449.636 395.227 456.864 395.227 467.682C395.227 478.477 401.727 485.682 411.955 485.682ZM412 479.091C406.341 479.091 403.568 474.045 403.568 467.659C403.568 461.273 406.341 456.159 412 456.159C417.568 456.159 420.341 461.273 420.341 467.659C420.341 474.045 417.568 479.091 412 479.091ZM443.892 464.545C443.892 459.5 446.938 456.591 451.278 456.591C455.528 456.591 458.074 459.386 458.074 464.045V485H466.301V462.773C466.324 454.409 461.551 449.636 454.347 449.636C449.119 449.636 445.528 452.136 443.938 456.023H443.528V450.091H435.665V485H443.892V464.545ZM484.71 485.705C490.188 485.705 493.46 483.136 494.96 480.205H495.233V485H503.142V461.636C503.142 452.409 495.619 449.636 488.96 449.636C481.619 449.636 475.983 452.909 474.165 459.273L481.847 460.364C482.665 457.977 484.983 455.932 489.006 455.932C492.824 455.932 494.915 457.886 494.915 461.318V461.455C494.915 463.818 492.438 463.932 486.278 464.591C479.506 465.318 473.028 467.341 473.028 475.205C473.028 482.068 478.051 485.705 484.71 485.705ZM486.847 479.659C483.415 479.659 480.96 478.091 480.96 475.068C480.96 471.909 483.71 470.591 487.392 470.068C489.551 469.773 493.869 469.227 494.938 468.364V472.477C494.938 476.364 491.801 479.659 486.847 479.659ZM519.642 438.455H511.415V485H519.642V438.455ZM552.205 464.545C552.205 459.5 555.25 456.591 559.591 456.591C563.841 456.591 566.386 459.386 566.386 464.045V485H574.614V462.773C574.636 454.409 569.864 449.636 562.659 449.636C557.432 449.636 553.841 452.136 552.25 456.023H551.841V450.091H543.977V485H552.205V464.545ZM598.432 485.682C606.568 485.682 612.159 481.705 613.614 475.636L605.932 474.773C604.818 477.727 602.091 479.273 598.545 479.273C593.227 479.273 589.705 475.773 589.636 469.795H613.955V467.273C613.955 455.023 606.591 449.636 598 449.636C588 449.636 581.477 456.977 581.477 467.75C581.477 478.705 587.909 485.682 598.432 485.682ZM589.659 464.25C589.909 459.795 593.205 456.045 598.114 456.045C602.841 456.045 606.023 459.5 606.068 464.25H589.659ZM620.915 485H629.142V464.477C629.142 460.045 632.483 456.909 637.006 456.909C638.392 456.909 640.119 457.159 640.824 457.386V449.818C640.074 449.682 638.778 449.591 637.869 449.591C633.869 449.591 630.528 451.864 629.256 455.909H628.892V450.091H620.915V485ZM657.807 485.614C663.807 485.614 666.511 482.045 667.807 479.5H668.307V485H676.398V438.455H668.148V455.864H667.807C666.557 453.341 663.989 449.636 657.83 449.636C649.761 449.636 643.42 455.955 643.42 467.591C643.42 479.091 649.58 485.614 657.807 485.614ZM660.102 478.864C654.67 478.864 651.807 474.091 651.807 467.545C651.807 461.045 654.625 456.386 660.102 456.386C665.398 456.386 668.307 460.773 668.307 467.545C668.307 474.318 665.352 478.864 660.102 478.864ZM689.506 485.341C691.324 485.341 692.778 483.864 692.778 482.068C692.778 480.25 691.324 478.795 689.506 478.795C687.71 478.795 686.233 480.25 686.233 482.068C686.233 483.864 687.71 485.341 689.506 485.341Z" fill="currentColor"/>
<path d="M825 500L943 161C943 147 945 143 959 143H979.5C993.5 143 995.5 147 995.5 161L1113 500H825Z" fill="white" fill-opacity="0.2"/>
<path d="M1096.81 390.524L1097 389.586C1075.92 385.374 1054.29 385.331 1041.2 385.875C1043.35 378.135 1044 369.229 1044 359.297C1044 345.054 1038.64 333.659 1029.95 324.988C1031.47 320.088 1033.5 309.205 1027.92 295.273C1027.92 295.273 1018.09 292.152 995.839 307.031C987.123 304.854 977.848 303.78 968.559 303.78C958.339 303.78 948.012 305.08 938.38 307.72C915.422 292.07 905.287 295.276 905.287 295.276C898.671 311.807 902.761 324.047 904.004 327.087C896.228 335.472 891.481 346.177 891.481 359.301C891.481 369.208 892.61 378.097 895.367 385.822C882.169 385.342 861.327 385.527 841 389.588L841.187 390.527C861.636 386.441 882.61 386.299 895.727 386.795C896.335 388.394 897.012 389.945 897.771 391.444C884.799 391.862 862.649 393.514 841.421 399.498L841.683 400.417C863.078 394.389 885.42 392.779 898.267 392.386C906.017 406.822 921.298 416.146 948.483 419.074C944.624 421.665 940.688 426.069 939.093 433.521C933.835 436.034 917.191 442.168 907.204 425.005C907.204 425.005 901.614 414.793 890.914 413.993C890.914 413.993 880.535 413.834 890.198 420.456C890.198 420.456 897.143 423.726 901.935 436.015C901.935 436.015 908.186 456.976 938.351 450.251V471.902C938.351 471.902 937.713 479.561 930.687 482.112C930.687 482.112 926.536 484.984 931.008 486.577C931.008 486.577 950.484 488.173 950.484 472.222V448.613C950.484 448.613 949.712 439.25 954.315 435.995V474.774C954.315 474.774 953.997 484.026 949.207 487.536C949.207 487.536 946.012 493.277 953.038 491.684C953.038 491.684 966.447 489.77 967.087 474.136L967.39 434.892H970.614L970.92 474.136C971.558 489.77 984.968 491.684 984.968 491.684C991.992 493.277 988.799 487.536 988.799 487.536C984.01 484.026 983.691 474.774 983.691 474.774V436.33C988.292 439.909 987.522 448.612 987.522 448.612V472.221C987.522 488.173 1007 486.577 1007 486.577C1011.47 484.983 1007.32 482.111 1007.32 482.111C1000.29 479.56 999.655 471.902 999.655 471.902V440.954C999.655 428.886 994.57 422.495 989.597 419.121C1018.59 416.249 1032.5 406.895 1038.91 392.361C1051.61 392.71 1074.46 394.256 1096.32 400.417L1096.58 399.498C1074.85 393.372 1052.15 391.787 1039.32 391.414C1039.93 389.946 1040.46 388.419 1040.93 386.848C1053.95 386.307 1075.68 386.314 1096.84 390.539L1096.81 390.524Z" stroke="white" stroke-width="2" stroke-linejoin="round"/>
<path d="M1015.64 358.629C1021.89 364.282 1025.54 371.108 1025.54 378.463C1025.54 412.802 999.924 413.733 968.325 413.733C936.721 413.733 911.106 408.978 911.106 378.463C911.106 371.157 914.707 364.373 920.874 358.743C931.162 349.361 948.572 354.329 968.324 354.329C987.989 354.326 1005.34 349.307 1015.64 358.626L1015.64 358.629Z" stroke="white" stroke-width="2"/>
<path d="M949.293 380.21C949.293 389.669 943.963 397.335 937.388 397.335C930.813 397.335 925.482 389.669 925.482 380.21C925.482 370.752 930.813 363.089 937.388 363.089C943.963 363.096 949.293 370.754 949.293 380.21V380.21ZM1013.17 380.21C1013.17 389.669 1007.84 397.335 1001.26 397.335C994.689 397.335 989.358 389.669 989.358 380.21C989.358 370.752 994.689 363.089 1001.26 363.089C1007.84 363.096 1013.17 370.754 1013.17 380.21V380.21Z" stroke="white" stroke-width="2"/>
<path d="M944.475 380.423V380.718C944.422 383.573 943.594 386.11 942.33 387.927C941.021 389.809 939.311 390.84 937.54 390.84C935.77 390.84 934.06 389.809 932.751 387.927C931.444 386.048 930.604 383.4 930.604 380.426C930.604 377.451 931.444 374.801 932.75 372.922C934.059 371.039 935.769 370.007 937.54 370.007C939.309 370.007 941.019 371.039 942.328 372.921C943.634 374.8 944.475 377.449 944.475 380.423ZM1008.34 380.423V380.718C1008.29 383.573 1007.46 386.11 1006.2 387.927C1004.89 389.809 1003.18 390.84 1001.41 390.84C999.639 390.84 997.929 389.809 996.62 387.927C995.314 386.048 994.473 383.4 994.473 380.426C994.473 377.451 995.313 374.801 996.619 372.922C997.928 371.039 999.638 370.007 1001.41 370.007C1003.18 370.007 1004.89 371.039 1006.2 372.921C1007.5 374.8 1008.34 377.449 1008.34 380.423Z" stroke="white" stroke-width="2"/>
<path d="M968.504 398.393C970.148 398.393 971.481 397.061 971.481 395.418C971.481 393.775 970.148 392.443 968.504 392.443C966.86 392.443 965.527 393.775 965.527 395.418C965.527 397.061 966.86 398.393 968.504 398.393Z" stroke="white" stroke-width="2"/>
<path d="M895.544 417.823C895.544 418.616 894.613 419.257 893.467 419.257C892.322 419.257 891.391 418.616 891.391 417.823C891.391 417.029 892.322 416.385 893.467 416.385C894.613 416.385 895.544 417.027 895.544 417.825V417.823ZM901.294 421.013C901.294 421.807 900.363 422.448 899.217 422.448C898.072 422.448 897.14 421.807 897.14 421.013C897.14 420.219 898.072 419.576 899.217 419.576C900.363 419.576 901.294 420.218 901.294 421.015V421.013ZM904.806 425.163C904.806 425.957 903.876 426.598 902.73 426.598C901.585 426.598 900.653 425.957 900.653 425.163C900.653 424.369 901.585 423.726 902.73 423.726C903.876 423.726 904.806 424.368 904.806 425.166V425.163ZM907.999 429.949C907.999 430.743 907.068 431.383 905.923 431.383C904.777 431.383 903.846 430.743 903.846 429.949C903.846 429.155 904.777 428.511 905.923 428.511C907.068 428.511 907.999 429.153 907.999 429.951V429.949ZM911.509 434.417C911.509 435.21 910.578 435.851 909.432 435.851C908.287 435.851 907.355 435.21 907.355 434.417C907.355 433.623 908.287 432.979 909.432 432.979C910.578 432.979 911.509 433.621 911.509 434.419V434.417ZM916.305 438.243C916.305 439.036 915.374 439.677 914.228 439.677C913.083 439.677 912.151 439.036 912.151 438.243C912.151 437.448 913.083 436.805 914.228 436.805C915.374 436.805 916.305 437.447 916.305 438.245V438.243ZM923.008 440.798C923.008 441.591 922.077 442.232 920.931 442.232C919.786 442.232 918.855 441.591 918.855 440.798C918.855 440.003 919.786 439.36 920.931 439.36C922.077 439.36 923.008 440.002 923.008 440.8V440.798ZM929.684 440.798C929.684 441.591 928.754 442.232 927.608 442.232C926.463 442.232 925.531 441.591 925.531 440.798C925.531 440.003 926.463 439.36 927.608 439.36C928.754 439.36 929.684 440.002 929.684 440.8V440.798ZM936.456 439.689C936.456 440.483 935.525 441.123 934.379 441.123C933.234 441.123 932.302 440.483 932.302 439.689C932.302 438.895 933.234 438.251 934.379 438.251C935.525 438.251 936.456 438.894 936.456 439.691V439.689Z" fill="white"/>
<path d="M943 159C943 145 945 143 959 143C967.006 143 971.494 143 979.5 143C993.5 143 995.5 145 995.5 159M979 149C979 154.523 974.523 159 969 159C963.477 159 959 154.523 959 149M969 166V174M979 163L981 172M959 163L957 172" stroke="white" stroke-width="4" stroke-linecap="round" stroke-linejoin="round"/>
</g>
<defs>
<clipPath id="clip0">
<rect width="1220" height="500" fill="white"/>
</clipPath>
</defs>
</svg>
