<svg width="22" height="22" viewBox="0 0 22 22" fill="none" xmlns="http://www.w3.org/2000/svg">
<rect width="22" height="22" rx="4" fill="white"/>
<rect width="22" height="22" fill="url(#paint0_linear)"/>
<path d="M17.7826 5.62458C16.5422 4.64661 15.0302 4.079 13.455 4L13.2392 4.24756C14.6414 4.62288 15.9483 5.29262 17.0736 6.21252C15.6384 5.41868 14.0624 4.91432 12.4344 4.72787C11.3991 4.61334 10.3539 4.62372 9.32102 4.75881C8.0203 4.88081 6.74913 5.22074 5.56033 5.7645C4.99006 6.02753 4.65098 6.2132 4.65098 6.2132C5.83742 5.24683 7.22141 4.5548 8.70452 4.18634L8.55039 4.00067C6.974 4.07898 5.4607 4.64663 4.21943 5.62525C2.80891 8.42457 2.05002 11.5089 2 14.6455C2 14.6455 3.29467 16.889 6.70087 17C6.70087 17 7.27114 16.3038 7.73352 15.7158C6.64993 15.4415 5.69588 14.7957 5.0363 13.8901C6.26292 14.6709 7.62811 15.2067 9.057 15.4683C10.3751 15.7224 11.7289 15.7277 13.0489 15.4837C14.4737 15.2226 15.8346 14.6866 17.0562 13.9056C16.3718 14.8305 15.3837 15.4827 14.2665 15.7468C14.7289 16.3347 15.2837 17 15.2837 17C18.6899 16.8917 20 14.6455 20 14.6455C19.9507 11.5088 19.1925 8.42427 17.7826 5.62458ZM8.11883 13.2039C7.6899 13.1677 7.29016 12.9711 6.99881 12.653C6.70747 12.335 6.54577 11.9186 6.54577 11.4865C6.54577 11.0544 6.70747 10.6381 6.99881 10.32C7.29016 10.0019 7.6899 9.80529 8.11883 9.76911C8.54777 9.80529 8.94751 10.0019 9.23886 10.32C9.5302 10.6381 9.69189 11.0544 9.69189 11.4865C9.69189 11.9186 9.5302 12.335 9.23886 12.653C8.94751 12.9711 8.54777 13.1677 8.11883 13.2039ZM13.7478 13.2039C13.4033 13.2332 13.058 13.1574 12.7572 12.9864C12.4563 12.8154 12.2139 12.5572 12.0617 12.2456C11.9094 11.934 11.8544 11.5835 11.9039 11.24C11.9534 10.8965 12.105 10.576 12.3389 10.3205C12.5728 10.0649 12.8782 9.88621 13.215 9.80775C13.5517 9.72929 13.9043 9.75473 14.2264 9.88074C14.5485 10.0067 14.8253 10.2275 15.0204 10.514C15.2155 10.8005 15.3199 11.1395 15.3199 11.4865C15.3357 11.9234 15.1791 12.3489 14.8841 12.6705C14.5891 12.9921 14.1795 13.1838 13.7445 13.2039H13.7478Z" fill="white"/>
<defs>
<linearGradient id="paint0_linear" x1="11" y1="0" x2="11" y2="22" gradientUnits="userSpaceOnUse">
<stop stop-color="#9AAAE4"/>
<stop offset="1" stop-color="#7289DA"/>
</linearGradient>
</defs>
</svg>
