<svg width="22" height="22" viewBox="0 0 22 22" fill="none" xmlns="http://www.w3.org/2000/svg">
<rect width="22" height="22" rx="4" fill="white"/>
<rect width="22" height="22" fill="url(#paint0_linear)"/>
<path d="M11.9573 13.4226C11.6635 13.583 11.3341 13.667 10.9993 13.667C10.6646 13.667 10.3352 13.583 10.0413 13.4226L3 9.5813V15.6666C3 16.1971 3.21071 16.7058 3.58579 17.0808C3.96086 17.4559 4.46957 17.6666 5 17.6666H17C17.5304 17.6666 18.0391 17.4559 18.4142 17.0808C18.7893 16.7058 19 16.1971 19 15.6666V9.5813L11.9573 13.4226Z" fill="white"/>
<path d="M11 12.3333C10.8887 12.3332 10.7791 12.3052 10.6813 12.2519L3.348 8.25192C3.24274 8.19464 3.15487 8.11004 3.09363 8.00704C3.03239 7.90403 3.00004 7.78642 3 7.66658V6.33325C3 5.80282 3.21071 5.29411 3.58579 4.91904C3.96086 4.54397 4.46957 4.33325 5 4.33325H17C17.5304 4.33325 18.0391 4.54397 18.4142 4.91904C18.7893 5.29411 19 5.80282 19 6.33325V7.66658C19 7.78642 18.9676 7.90403 18.9064 8.00704C18.8451 8.11004 18.7573 8.19464 18.652 8.25192L11.3187 12.2519C11.2209 12.3052 11.1113 12.3332 11 12.3333Z" fill="white"/>
<defs>
<linearGradient id="paint0_linear" x1="11" y1="0" x2="11" y2="22" gradientUnits="userSpaceOnUse">
<stop stop-color="#E6B76B"/>
<stop offset="1" stop-color="#C98922"/>
</linearGradient>
</defs>
</svg>
