<svg width="22" height="22" viewBox="0 0 22 22" fill="none" xmlns="http://www.w3.org/2000/svg">
<rect width="22" height="22" fill="url(#paint0_linear)"/>
<path d="M2.37785 13.5888C3.48975 17.2977 6.9293 20 11.0001 20C15.9705 20 20.0001 15.9705 20.0001 11C20.0001 6.02945 15.9705 2 11.0001 2C6.23039 2 2.32763 5.7104 2.01939 10.4021C2.60181 11.3801 2.82908 11.985 2.37793 13.5888H2.37785Z" fill="white"/>
<path d="M10.5365 8.74579C10.5365 8.76094 10.5365 8.77608 10.5373 8.79029L8.33492 11.9895C7.97817 11.9733 7.62017 12.0359 7.28072 12.1757C7.13108 12.2367 6.99087 12.3116 6.85931 12.3982L2.02333 10.4074C2.02337 10.4074 1.91143 12.2483 2.37777 13.6203L5.79654 15.031C5.96819 15.7981 6.49444 16.471 7.27084 16.7947C8.54111 17.3254 10.0058 16.7205 10.5342 15.4497C10.6717 15.1175 10.7358 14.7691 10.7265 14.4214L13.8777 12.1695C13.9032 12.1703 13.9294 12.171 13.9549 12.171C15.8407 12.171 17.3734 10.6337 17.3734 8.74579C17.3734 6.85773 15.8407 5.32178 13.9549 5.32178C12.07 5.32178 10.5365 6.85773 10.5365 8.74579ZM10.0081 15.2287C9.59909 16.2106 8.47073 16.6765 7.48993 16.2678C7.03745 16.0793 6.69584 15.734 6.49877 15.3222L7.6116 15.7834C8.33492 16.0847 9.16478 15.7417 9.46545 15.0186C9.76704 14.2947 9.42489 13.4635 8.70195 13.1622L7.55157 12.6856C7.99547 12.5171 8.50009 12.511 8.97157 12.7072C9.4469 12.905 9.81571 13.2773 10.0112 13.7532C10.2066 14.2291 10.2058 14.7544 10.0081 15.2287ZM13.9549 11.0277C12.6996 11.0277 11.6775 10.0041 11.6775 8.74579C11.6775 7.4885 12.6996 6.46458 13.9549 6.46458C15.2111 6.46458 16.2331 7.4885 16.2331 8.74579C16.2331 10.0041 15.2111 11.0277 13.9549 11.0277ZM12.2484 8.74232C12.2484 7.79573 13.0148 7.02799 13.9588 7.02799C14.9036 7.02799 15.67 7.79573 15.67 8.74232C15.67 9.68898 14.9036 10.456 13.9588 10.456C13.0148 10.456 12.2484 9.68898 12.2484 8.74232Z" fill="white"/>
<path d="M10.5365 8.74579C10.5365 8.76094 10.5365 8.77608 10.5373 8.79029L8.33492 11.9895C7.97817 11.9733 7.62017 12.0359 7.28072 12.1757C7.13108 12.2367 6.99087 12.3116 6.85931 12.3982L2.02333 10.4074C2.02337 10.4074 1.91143 12.2483 2.37777 13.6203L5.79654 15.031C5.96819 15.7981 6.49444 16.471 7.27084 16.7947C8.54111 17.3254 10.0058 16.7205 10.5342 15.4497C10.6717 15.1175 10.7358 14.7691 10.7265 14.4214L13.8777 12.1695C13.9032 12.1703 13.9294 12.171 13.9549 12.171C15.8407 12.171 17.3734 10.6337 17.3734 8.74579C17.3734 6.85773 15.8407 5.32178 13.9549 5.32178C12.07 5.32178 10.5365 6.85773 10.5365 8.74579ZM10.0081 15.2287C9.59909 16.2106 8.47073 16.6765 7.48993 16.2678C7.03745 16.0793 6.69584 15.734 6.49877 15.3222L7.6116 15.7834C8.33492 16.0847 9.16478 15.7417 9.46545 15.0186C9.76704 14.2947 9.42489 13.4635 8.70195 13.1622L7.55157 12.6856C7.99547 12.5171 8.50009 12.511 8.97157 12.7072C9.4469 12.905 9.81571 13.2773 10.0112 13.7532C10.2066 14.2291 10.2058 14.7544 10.0081 15.2287ZM13.9549 11.0277C12.6996 11.0277 11.6775 10.0041 11.6775 8.74579C11.6775 7.4885 12.6996 6.46458 13.9549 6.46458C15.2111 6.46458 16.2331 7.4885 16.2331 8.74579C16.2331 10.0041 15.2111 11.0277 13.9549 11.0277ZM12.2484 8.74232C12.2484 7.79573 13.0148 7.02799 13.9588 7.02799C14.9036 7.02799 15.67 7.79573 15.67 8.74232C15.67 9.68898 14.9036 10.456 13.9588 10.456C13.0148 10.456 12.2484 9.68898 12.2484 8.74232Z" fill="url(#paint1_linear)"/>
<defs>
<linearGradient id="paint0_linear" x1="11" y1="0" x2="11" y2="22" gradientUnits="userSpaceOnUse">
<stop stop-color="#111D2E"/>
<stop offset="0.21248" stop-color="#051839"/>
<stop offset="0.40695" stop-color="#0A1B48"/>
<stop offset="0.5811" stop-color="#132E62"/>
<stop offset="0.7376" stop-color="#144B7E"/>
<stop offset="0.87279" stop-color="#136497"/>
<stop offset="1" stop-color="#1387B8"/>
</linearGradient>
<linearGradient id="paint1_linear" x1="9.69249" y1="1.92953e-07" x2="9.69249" y2="22" gradientUnits="userSpaceOnUse">
<stop stop-color="#111D2E"/>
<stop offset="0.21248" stop-color="#051839"/>
<stop offset="0.40695" stop-color="#0A1B48"/>
<stop offset="0.5811" stop-color="#132E62"/>
<stop offset="0.7376" stop-color="#144B7E"/>
<stop offset="0.87279" stop-color="#136497"/>
<stop offset="1" stop-color="#1387B8"/>
</linearGradient>
</defs>
</svg>
