<svg width="22" height="22" viewBox="0 0 22 22" fill="none" xmlns="http://www.w3.org/2000/svg">
<rect width="22" height="22" fill="url(#paint0_linear)"/>
<path d="M19.9648 3.89521C19.9502 3.82875 19.9183 3.76731 19.8723 3.71714C19.8263 3.66696 19.7679 3.62981 19.703 3.60946C19.4665 3.56262 19.2218 3.57997 18.9943 3.65971C18.9943 3.65971 3.2225 9.32896 2.32175 9.95671C2.12825 10.0917 2.063 10.1705 2.03075 10.2627C1.87475 10.7127 2.36 10.9062 2.36 10.9062L6.425 12.2307C6.49373 12.243 6.56441 12.2389 6.63125 12.2187C7.55525 11.6345 15.9313 6.34321 16.418 6.16546C16.493 6.14296 16.5508 6.16546 16.5358 6.22171C16.3423 6.90046 9.104 13.3302 9.06425 13.3692C9.04489 13.3851 9.0298 13.4055 9.02037 13.4287C9.01094 13.4519 9.00746 13.4771 9.01025 13.502L8.63075 17.471C8.63075 17.471 8.47175 18.7062 9.707 17.471C10.583 16.5942 11.4238 15.8682 11.8438 15.515C13.2418 16.4802 14.7455 17.5475 15.3942 18.1062C15.5034 18.2118 15.6327 18.2944 15.7744 18.3489C15.9162 18.4034 16.0675 18.4288 16.2192 18.4235C16.4062 18.4007 16.5817 18.3215 16.7225 18.1965C16.8633 18.0715 16.9627 17.9066 17.0075 17.7237C17.0075 17.7237 19.88 6.15646 19.976 4.60696C19.9858 4.45696 19.9985 4.35796 20 4.25371C20.0047 4.13316 19.9928 4.01254 19.9648 3.89521Z" fill="white"/>
<defs>
<linearGradient id="paint0_linear" x1="14.674" y1="3.674" x2="9.174" y2="16.5" gradientUnits="userSpaceOnUse">
<stop stop-color="#37AEE2"/>
<stop offset="1" stop-color="#1E96C8"/>
</linearGradient>
</defs>
</svg>
