<svg width="22" height="22" viewBox="0 0 22 22" fill="none" xmlns="http://www.w3.org/2000/svg">
<rect width="22" height="22" fill="url(#paint0_linear)"/>
<path d="M20 5.44985C19.325 5.74985 18.65 5.97485 17.9 6.04985C18.65 5.59985 19.25 4.84985 19.55 4.02485C18.8 4.47485 18.05 4.77485 17.225 4.92485C16.55 4.17485 15.575 3.72485 14.525 3.72485C12.5 3.72485 10.85 5.37485 10.85 7.39985C10.85 7.69985 10.85 7.99985 10.925 8.22485C7.775 8.07485 5.075 6.57485 3.275 4.32485C2.9 4.92485 2.75 5.52485 2.75 6.19985C2.75 7.47485 3.425 8.59985 4.4 9.27485C3.8 9.27485 3.2 9.12485 2.75 8.82485C2.75 8.82485 2.75 8.82485 2.75 8.89985C2.75 10.6999 4.025 12.1999 5.675 12.4999C5.375 12.5749 5.075 12.6499 4.7 12.6499C4.475 12.6499 4.25 12.6499 4.025 12.5749C4.475 14.0749 5.825 15.1249 7.475 15.1249C6.2 16.0999 4.625 16.6999 2.9 16.6999C2.6 16.6999 2.3 16.6999 2 16.6249C3.65 17.6749 5.6 18.2749 7.625 18.2749C14.45 18.2749 18.125 12.6499 18.125 7.77485C18.125 7.62485 18.125 7.47485 18.125 7.32485C18.875 6.79985 19.475 6.12485 20 5.44985Z" fill="white"/>
<defs>
<linearGradient id="paint0_linear" x1="0" y1="0" x2="22" y2="22" gradientUnits="userSpaceOnUse">
<stop stop-color="#1DA1F2"/>
<stop offset="1" stop-color="#0B7FC6"/>
</linearGradient>
</defs>
</svg>
