<svg width="22" height="22" viewBox="0 0 22 22" fill="none" xmlns="http://www.w3.org/2000/svg">
<rect width="22" height="22" fill="url(#paint0_linear)"/>
<path d="M12.6815 9.3184C12.314 8.9509 11.8925 8.6599 11.4373 8.44165C11.156 8.7244 11 9.1009 11 9.4999C11 9.65965 11.03 9.81115 11.0765 9.9559C11.2708 10.0767 11.4552 10.2132 11.621 10.3789C12.1873 10.9459 12.5 11.6989 12.5 12.4999C12.5 13.3009 12.188 14.0547 11.6217 14.6217L9.37175 16.8709C8.23775 18.0049 6.26225 18.0049 5.129 16.8709C4.562 16.3039 4.25 15.5509 4.25 14.7499C4.25 13.9489 4.562 13.1959 5.12825 12.6289L6.70625 11.0509C6.5735 10.5507 6.5 10.0317 6.5 9.4999C6.5 9.3784 6.50975 9.25765 6.51725 9.13765C6.4505 9.1969 6.38225 9.25465 6.31775 9.3184L4.06775 11.5684C3.218 12.4182 2.75 13.5477 2.75 14.7499C2.75 15.9522 3.218 17.0817 4.06775 17.9314C4.91825 18.7819 6.04775 19.2499 7.25 19.2499C8.45225 19.2499 9.58175 18.7819 10.4323 17.9314L12.6823 15.6822C13.5312 14.8317 14 13.7022 14 12.4999C14 11.2977 13.5312 10.1682 12.6815 9.3184Z" fill="white"/>
<path d="M17.9323 4.0685C17.0817 3.218 15.9523 2.75 14.75 2.75C13.5477 2.75 12.4183 3.218 11.5677 4.0685L9.31775 6.31775C8.46875 7.16825 8 8.29775 8 9.5C8 10.7023 8.468 11.8317 9.31775 12.6815C9.68525 13.049 10.1068 13.34 10.562 13.5583C10.844 13.2755 11 12.899 11 12.5C11 12.3365 10.9692 12.1813 10.9205 12.0335C10.727 11.9173 10.5433 11.7845 10.3798 11.621C9.81275 11.054 9.5 10.301 9.5 9.5C9.5 8.699 9.812 7.94525 10.3782 7.37825L12.6282 5.129C13.1952 4.562 13.949 4.25 14.75 4.25C15.551 4.25 16.3048 4.562 16.8717 5.129C17.438 5.696 17.75 6.449 17.75 7.25C17.75 8.051 17.438 8.804 16.8717 9.371L15.2915 10.9513C15.425 11.4508 15.5 11.969 15.5 12.5C15.5 12.6215 15.491 12.7415 15.4843 12.8615C15.551 12.8022 15.6192 12.7452 15.683 12.6815L17.933 10.4315C18.782 9.58175 19.25 8.45225 19.25 7.25C19.25 6.04775 18.782 4.91825 17.9323 4.0685Z" fill="white"/>
<defs>
<linearGradient id="paint0_linear" x1="0" y1="22" x2="22" y2="0" gradientUnits="userSpaceOnUse">
<stop stop-color="#06A206"/>
<stop offset="1" stop-color="#84FA84"/>
</linearGradient>
</defs>
</svg>
